<?xml version="1.0" encoding="UTF-8" standalone="no"?>
<!-- Uploaded to: SVG Repo, www.svgrepo.com, Generator: SVG Repo Mixer Tools -->

<svg
   width="800px"
   height="800px"
   viewBox="0 0 24 24"
   fill="none"
   version="1.1"
   id="svg1"
   sodipodi:docname="folder-plus.svg"
   inkscape:version="1.4 (86a8ad7, 2024-10-11)"
   xmlns:inkscape="http://www.inkscape.org/namespaces/inkscape"
   xmlns:sodipodi="http://sodipodi.sourceforge.net/DTD/sodipodi-0.dtd"
   xmlns="http://www.w3.org/2000/svg"
   xmlns:svg="http://www.w3.org/2000/svg">
  <defs
     id="defs1" />
  <sodipodi:namedview
     id="namedview1"
     pagecolor="#ffffff"
     bordercolor="#000000"
     borderopacity="0.25"
     inkscape:showpageshadow="2"
     inkscape:pageopacity="0.0"
     inkscape:pagecheckerboard="0"
     inkscape:deskcolor="#d1d1d1"
     inkscape:zoom="2.31625"
     inkscape:cx="400.21587"
     inkscape:cy="192.76848"
     inkscape:window-width="2649"
     inkscape:window-height="1821"
     inkscape:window-x="5021"
     inkscape:window-y="188"
     inkscape:window-maximized="0"
     inkscape:current-layer="svg1" />
  <path
     d="m 2,7 v 9.2 c 0,1.6802 0,2.5202 0.32698,3.162 0.28762,0.5645 0.74656,1.0234 1.31105,1.311 C 4.27976,21 5.11984,21 6.8,21 h 10.4 c 1.6802,0 2.5202,0 3.162,-0.327 0.5645,-0.2876 1.0234,-0.7465 1.311,-1.311 C 22,18.7202 22,17.8802 22,16.2 V 11.8 C 22,10.1198 22,9.27976 21.673,8.63803 21.3854,8.07354 20.9265,7.6146 20.362,7.32698 19.7202,7 18.8802,7.0000079 17.2,7 L 12.99999,6.99999 11.8845,4.76892 C 11.5634,4.1268 11.4029,3.80573 11.1634,3.57116 10.9516,3.36373 10.6963,3.20597 10.4161,3.10931 10.0992,3 9.74021,3 9.02229,3 H 5.2 C 4.0799,3 3.51984,3 3.09202,3.21799 2.71569,3.40973 2.40973,3.71569 2.21799,4.09202 2,4.51984 1.999986,5.0799 2,6.2 l 1e-5,0.8 M 12,17 v -6 m -3,3 h 6"
     stroke="#000000"
     stroke-width="2"
     stroke-linecap="round"
     stroke-linejoin="round"
     id="path1"
     sodipodi:nodetypes="csccssccssccsccccssccsccccc" />
</svg>
